<svg xmlns="http://www.w3.org/2000/svg" viewBox="0 0 1280 760" fill="none">
  <defs>
    <linearGradient id="bg" x1="640" y1="0" x2="640" y2="760" gradientUnits="userSpaceOnUse">
      <stop stop-color="#1B2A50"/>
      <stop offset="1" stop-color="#0A132C"/>
    </linearGradient>
    <linearGradient id="accent" x1="640" y1="0" x2="980" y2="760" gradientUnits="userSpaceOnUse">
      <stop stop-color="#4F7EFF"/>
      <stop offset="1" stop-color="#7C9CFF"/>
    </linearGradient>
  </defs>
  <rect width="1280" height="760" rx="40" fill="url(#bg)"/>
  <rect x="100" y="120" width="1080" height="520" rx="32" fill="#0F172A" stroke="rgba(255,255,255,0.08)" stroke-width="2"/>
  <circle cx="250" cy="210" r="42" fill="#3B82F6" opacity="0.9"/>
  <circle cx="320" cy="210" r="18" fill="#A5B4FC" opacity="0.75"/>
  <rect x="160" y="280" width="900" height="32" rx="16" fill="#18243C"/>
  <rect x="160" y="340" width="740" height="24" rx="12" fill="#0F172A"/>
  <rect x="160" y="390" width="860" height="24" rx="12" fill="#0F172A"/>
  <rect x="160" y="440" width="680" height="24" rx="12" fill="#0F172A"/>
  <rect x="160" y="490" width="500" height="24" rx="12" fill="#0F172A"/>
  <rect x="880" y="280" width="260" height="168" rx="24" fill="#141C34"/>
  <rect x="880" y="470" width="260" height="168" rx="24" fill="#141C34"/>
  <rect x="190" y="200" width="260" height="324" rx="22" fill="#081128" stroke="rgba(79,126,255,0.2)" stroke-width="2"/>
  <rect x="235" y="236" width="160" height="22" rx="11" fill="#4F7EFF"/>
  <rect x="235" y="276" width="140" height="18" rx="9" fill="#1E293B"/>
  <rect x="235" y="306" width="180" height="18" rx="9" fill="#1E293B"/>
  <rect x="235" y="346" width="120" height="18" rx="9" fill="#1E293B"/>
  <rect x="235" y="390" width="200" height="18" rx="9" fill="#0F172A"/>
  <rect x="235" y="430" width="98" height="18" rx="9" fill="#0F172A"/>
  <rect x="355" y="430" width="90" height="18" rx="9" fill="#0F172A"/>
  <rect x="755" y="220" width="340" height="18" rx="9" fill="#1E293B"/>
  <rect x="755" y="260" width="210" height="18" rx="9" fill="#1E293B"/>
  <rect x="755" y="300" width="180" height="18" rx="9" fill="#1E293B"/>
  <rect x="755" y="340" width="280" height="18" rx="9" fill="#1E293B"/>
  <rect x="755" y="380" width="300" height="18" rx="9" fill="#1E293B"/>
  <rect x="755" y="420" width="80" height="18" rx="9" fill="#4F7EFF"/>
  <rect x="755" y="460" width="120" height="18" rx="9" fill="#7C9CFF"/>
  <circle cx="980" cy="520" r="60" fill="url(#accent)" opacity="0.18"/>
  <circle cx="270" cy="510" r="38" fill="#4F7EFF" opacity="0.12"/>
</svg>
